<svg width="54" height="51" viewBox="0 0 54 51" fill="none" xmlns="http://www.w3.org/2000/svg">
<path d="M1.58435 1C2.91607 1.70503 4.21648 2.2437 5.64926 2.72726C7.33015 3.29456 8.8253 4.15924 10.4414 4.85711C11.7776 5.43412 12.9982 6.22023 14.3505 6.63632C15.1189 6.87276 16.0906 6.72723 16.8959 6.72723C18.2967 6.72723 19.6773 6.61035 21.0777 6.61035C22.7913 6.61035 24.7014 6.83349 26.3894 6.51944C27.6091 6.29252 28.5677 6.94604 29.4932 7.59735C29.9464 7.91625 30.6067 8.51888 30.9218 8.97397C31.2836 9.49659 31.8798 9.82934 32.1815 10.4025C33.0549 12.0619 34.6179 14.566 33.3763 16.4285" stroke="black" stroke-linecap="round"/>
<path d="M22.5063 14.0908C23.5648 14.2241 24.76 14.2371 25.7725 14.6168C26.0824 14.733 26.3941 14.9199 26.7141 14.9999C27.4472 15.1832 28.1677 15.4018 28.9089 15.6103C29.5245 15.7834 30.2885 15.859 30.8699 16.1038C31.038 16.1746 31.1847 16.2664 31.3374 16.3635C31.5849 16.521 31.9306 16.3751 32.2011 16.4934C32.6255 16.6791 33.681 16.9311 33.727 17.5064C33.7746 18.1011 34.5533 18.6581 34.1361 19.409C33.1612 21.1639 31.1534 21.3375 29.292 21.3375C28.0233 21.3375 26.7484 21.3737 25.4803 21.3375C24.7835 21.3176 24.088 21.1038 23.37 21.1038C22.5301 21.1038 22.0476 21.2901 21.3375 21.7466C20.6377 22.1965 19.548 22.4909 18.7142 22.5063C17.5963 22.527 15.9761 22.7508 14.9674 22.2076C14.6435 22.0332 14.2889 22.0507 13.948 21.9219C13.6918 21.8251 13.4744 21.6514 13.2142 21.5713C12.5155 21.3563 11.9297 20.9583 11.2856 20.6362C10.1084 20.0476 9.01655 19.1714 8.30514 18.0648C7.75984 17.2166 6.95587 16.2235 6.14282 15.6363C5.29154 15.0214 4.32844 14.5939 3.38959 14.1558C2.92368 13.9383 2.41185 13.8547 1.94805 13.5648C1.70481 13.4128 1.10096 13.2408 1 13.0389" stroke="black" stroke-linecap="round"/>
<path d="M29.9868 13.0389C29.2158 13.1245 28.3505 14.7799 28.3505 15.4934" stroke="black" stroke-linecap="round"/>
<path d="M24.2596 11.6363C24.9819 12.2141 25.5408 12.7096 26.0389 13.5064C26.2133 13.7856 26.4113 14.0223 26.5713 14.3246C26.6968 14.5617 26.714 14.7917 26.8311 15.0259" stroke="black" stroke-linecap="round"/>
<path d="M26.3634 21.6882C26.2819 21.6984 25.9517 22.5349 25.8959 22.6882C25.7418 23.1121 25.6952 23.7685 25.805 24.2076C25.8931 24.56 26.1216 25.195 26.3115 25.4933C26.5266 25.8313 26.7791 26.3116 27.0647 26.5972C27.8736 27.4061 28.7654 28.125 29.7271 28.7661C30.4525 29.2497 31.2262 29.6249 31.8569 30.2206C32.2799 30.6201 32.7004 30.9991 33.1166 31.4154C33.3866 31.6854 33.302 31.8144 33.6686 31.4478C33.9882 31.1282 34.3901 30.9837 34.779 30.779C36.4044 29.9235 37.5651 28.3933 38.9283 27.1816C39.5807 26.6017 40.1454 25.5391 40.5581 24.7726C40.7904 24.3412 40.7269 23.8606 40.74 23.3895C40.754 22.8834 40.8568 22.3845 40.8568 21.8635C40.8568 21.006 40.3674 20.4921 39.8049 19.9999C39.2154 19.4841 38.1315 19.7012 37.4088 19.7012C36.7417 19.7012 36.051 20.5029 35.4218 20.6427C35.1752 20.6975 34.9546 20.9961 34.714 21.1297C34.6601 21.1597 34.2193 21.5724 34.201 21.6362C34.1228 21.9102 33.7553 22.0181 33.727 22.2726C33.6862 22.6403 33.2976 22.513 33.1361 22.3245C32.8531 21.9944 32.3503 21.3461 31.9738 21.2207" stroke="black" stroke-linecap="round"/>
<path d="M52.3113 35.714C51.4596 35.714 50.5545 35.4935 49.7659 35.2205C49.3789 35.0865 49.0676 34.747 48.636 34.6686C48.3279 34.6126 48.1241 34.3114 47.8113 34.3114C47.5218 34.3114 47.0199 33.9738 46.8178 33.792C46.4005 33.4163 45.8504 33.2337 45.3243 33.0257C44.3545 32.6423 43.125 32.5582 42.0776 32.5582C41.1159 32.5582 40.3572 32.4447 39.4023 32.792C38.6395 33.0693 37.6744 33.0521 36.9738 33.4933C36.1973 33.9822 34.8178 34.3114 33.9218 34.3114C33.3991 34.3114 33.0015 34.5315 32.4933 34.5452C31.7672 34.5648 31.0378 34.5452 30.3115 34.5452C29.3463 34.5452 28.3551 34.6621 27.4154 34.6621C27.202 34.6621 26.8146 34.7598 26.5972 34.8374C26.3356 34.9308 26.214 35.1953 25.9544 35.253C25.5553 35.3417 25.4078 36.8635 25.4284 37.2335C25.4603 37.8088 26.2807 38.6574 26.7141 38.9283C28.4276 39.9992 30.6671 39.9218 32.6231 39.9218C33.4413 39.9218 34.2595 39.9218 35.0777 39.9218C35.79 39.9218 36.4391 40.2724 37.1166 40.2724" stroke="black" stroke-linecap="round"/>
<path d="M25.3115 37.5842C24.6432 37.5842 23.8023 37.2322 23.2076 36.9348C21.8046 36.2333 20.2566 36.0105 18.7726 35.4868C18.2042 35.2861 13.2373 33.6612 13.1557 35.1296C13.133 35.5393 12.922 35.875 12.922 36.2984C12.922 36.6759 12.8749 37.092 12.9285 37.4673C13.0824 38.5449 13.9793 39.716 14.6817 40.5062C15.29 41.1906 16.3327 41.6635 17.1297 42.0841C18.1075 42.6001 19.2066 43.2704 20.2596 43.6101C21.847 44.1221 23.3002 45.02 24.792 45.7659C25.9327 46.3362 26.9723 46.975 28.0582 47.636C29.0223 48.2229 29.9765 49.016 31.0777 49.3243C32.741 49.7901 34.3085 49.9737 36.0647 49.9737C37.1055 49.9737 38.2073 50.0985 39.214 49.8048C39.8777 49.6113 40.5605 49.3993 41.2335 49.2464C42.204 49.0258 43.2985 48.4548 44.188 47.9867C45.3756 47.3616 47.1326 47.2854 48.4412 47.2854C50.0721 47.2854 51.7832 46.9925 53.3632 47.5191" stroke="black" stroke-linecap="round"/>
</svg>
