<svg width="37" height="49" viewBox="0 0 37 49" fill="none" xmlns="http://www.w3.org/2000/svg">
<path d="M23.1417 1.32326C18.5881 1.07932 8.45639 0.737803 4.35817 1.32326C-0.76461 2.05509 1.43087 43.5252 1.67481 45.4767C1.91875 47.4283 8.50519 48.8919 33.6312 47.9162C37.7782 45.4767 36.0706 16.4477 35.8267 14.4961C35.5827 12.5446 24.7006 2.30412 23.8735 1.81115" stroke="black" stroke-width="0.521922" stroke-linecap="round"/>
<path d="M24.3615 2.29903C23.7109 4.65713 22.6539 9.9588 23.6296 12.3006C24.6054 14.6425 31.8423 14.2522 35.3388 13.7643" stroke="black" stroke-width="0.521922"/>
<path d="M5.45087 21.6895C11.3935 21.6895 17.3017 22.0453 23.2401 22.0453" stroke="#2F2A27" stroke-linecap="round"/>
<path d="M7.22974 30.2283C9.97675 30.3899 12.6733 30.5841 15.4325 30.5841C17.5798 30.5841 19.6968 29.8725 21.8169 29.8725C23.8341 29.8725 25.8384 29.5167 27.8652 29.5167" stroke="#2F2A27" stroke-linecap="round"/>
<path d="M9.00867 38.7671C11.868 38.6428 14.459 37.9833 17.3696 38.4311C18.8973 38.6661 20.2162 38.7671 21.8169 38.7671" stroke="#2F2A27" stroke-linecap="round"/>
</svg>
