<svg width="9" height="8" viewBox="0 0 9 8" fill="none" xmlns="http://www.w3.org/2000/svg">
<path fill-rule="evenodd" clip-rule="evenodd" d="M4.19117 0.691168C4.09088 0.900773 4.18169 1.1635 4.38737 1.25888C4.44085 1.28368 4.82205 1.32699 5.4999 1.38527C6.06702 1.43403 6.53546 1.47921 6.54089 1.48568C6.5463 1.49213 5.2187 2.61513 3.59065 3.98123L0.630574 6.46503L0.592389 6.55874C0.533669 6.70286 0.553809 6.83715 0.654061 6.96985C0.753112 7.10097 0.867517 7.15789 1.02378 7.15383L1.12345 7.15124L4.11123 4.65103C5.7545 3.2759 7.1034 2.15605 7.10876 2.16244C7.11412 2.16884 7.07732 2.64384 7.02696 3.21803C6.92814 4.34487 6.92888 4.37269 7.06149 4.49883C7.14987 4.58291 7.30857 4.63645 7.4287 4.62275C7.56384 4.60735 7.71595 4.497 7.76491 4.37883C7.80846 4.27373 8.08036 1.13649 8.05515 1.0301C8.0295 0.921845 7.9155 0.790946 7.80845 0.746838C7.68456 0.695767 4.55645 0.428519 4.45576 0.460403C4.35192 0.493264 4.23855 0.592154 4.19117 0.691168Z" fill="#5F7ABA"/>
</svg>
