<svg width="44" height="49" viewBox="0 0 44 49" fill="none" xmlns="http://www.w3.org/2000/svg">
<path d="M29.7606 1.32326C25.2071 1.07932 15.0753 0.737803 10.9771 1.32326C5.85435 2.05509 8.04982 43.5252 8.29377 45.4767C8.53771 47.4283 15.1242 48.8919 40.2502 47.9162C44.3972 45.4767 42.6896 16.4477 42.4456 14.4961C42.2017 12.5446 31.3196 2.30412 30.4925 1.81115" stroke="black" stroke-width="0.521922" stroke-linecap="round"/>
<path d="M30.9804 2.29907C30.3299 4.65718 29.2728 9.95885 30.2486 12.3007C31.2243 14.6425 38.4613 14.2522 41.9577 13.7643" stroke="black" stroke-width="0.521922"/>
<rect x="0.260961" y="23.0511" width="29.7269" height="19.4813" rx="2.87057" fill="#F9FAFC" stroke="black" stroke-width="0.521922"/>
<path d="M4.4663 36.1774C4.4663 35.3928 4.54148 34.6046 4.54148 33.83C4.54148 33.1033 4.77828 32.4261 4.93411 31.7248C4.98413 31.4998 5.14306 31.3201 5.20144 31.0983C5.24205 30.944 5.22418 30.806 5.29333 30.6555C5.44819 30.3185 5.5394 29.9718 5.72773 29.6531C6.01909 29.16 6.2917 28.9597 6.8722 28.9597C8.03557 28.9597 8.90177 30.0851 9.09015 31.1401C9.25875 32.0842 8.22724 33.3452 7.3609 33.617C6.69254 33.8267 5.96498 33.8541 5.32674 33.546C5.08301 33.4283 4.51886 33.4256 4.39111 33.1701" stroke="black" stroke-width="1.04384" stroke-linecap="round"/>
<path d="M12.4355 30.0875C12.4355 31.437 12.3603 32.7917 12.3603 34.1349C12.3603 34.5579 12.2513 35.1507 12.377 35.5592C12.5085 35.9866 13.7438 35.8183 14.0478 35.7973C14.5106 35.7654 14.9846 35.5689 15.4429 35.484C15.6687 35.4422 16.0946 35.2826 16.2699 35.1248C16.814 34.6351 17.1413 34.2114 17.4311 33.5C17.8124 32.5639 17.4104 31.3097 16.9633 30.4634C16.2152 29.0475 14.4625 28.8093 13.0369 28.8093C12.3915 28.8093 12.2729 29.001 11.9092 29.486" stroke="black" stroke-width="1.04384" stroke-linecap="round"/>
<path d="M20.7812 36.1775C20.7812 35.3747 20.749 34.5652 20.7854 33.7632C20.8245 32.9044 20.7875 32.0004 20.894 31.1485C20.9067 31.0469 20.9553 29.2347 21.0987 29.2772C22.1858 29.5993 23.2921 29.4912 24.3943 29.7116C24.7626 29.7853 25.5545 29.9378 25.8938 29.7116" stroke="black" stroke-width="1.04384" stroke-linecap="round"/>
<path d="M24.3901 33.0949C23.5111 33.0949 22.6134 33.1316 21.7419 33.003C21.4681 32.9626 21.0186 32.9128 20.7812 32.7942" stroke="black" stroke-width="1.04384" stroke-linecap="round"/>
</svg>
