<svg width="512" height="512" viewBox="0 0 512 512" fill="none" xmlns="http://www.w3.org/2000/svg">
<g clip-path="url(#clip0_442_17)">
<path d="M129.5 60.5004L8.5 120.9H256H503.5L382.1 60.4004C267.6 3.40039 260.4 0.000388823 255.6 0.100389C250.9 0.200389 240.1 5.40039 129.5 60.5004Z" fill="#0151FE"/>
<path d="M0 152.5C0 155.6 6.3 170.9 10.7 178.5C18.6 192.2 29.8 206.1 35.4 209.2C38.3 210.9 50.7 211 255.7 211C380.4 211 473.9 210.6 475.2 210.1C480.3 208.2 493.1 192.7 501.3 178.5C505.7 170.9 512 155.6 512 152.5C512 151.2 480.7 151 256 151C31.3 151 0 151.2 0 152.5Z" fill="#0151FE"/>
<path d="M60 331.5V422H105.5H151V331.5V241H105.5H60V331.5Z" fill="#0151FE"/>
<path d="M211 331.5V422H256H301V331.5V241H256H211V331.5Z" fill="#0151FE"/>
<path d="M361 331.5V422H406.5H452V331.5V241H406.5H361V331.5Z" fill="#0151FE"/>
<path d="M25.3 454C20.8 456.7 10.1 471.5 4.5 482.5C0.8 489.9 0 492.5 0 497C0 503.2 2 507 6.6 510.1C9.4 511.9 16.2 512 256 512C495.8 512 502.6 511.9 505.4 510.1C510 507 512 503.2 512 497C512 492.5 511.2 489.9 507.5 482.5C502.1 471.6 491.2 456.7 486.7 454C483.5 452 481 452 256 452C31 452 28.5 452 25.3 454Z" fill="#0151FE"/>
</g>
<defs>
<clipPath id="clip0_442_17">
<rect width="512" height="512" fill="white"/>
</clipPath>
</defs>
</svg>
