<svg width="18" height="18" viewBox="0 0 18 18" fill="none" xmlns="http://www.w3.org/2000/svg">
<path fill-rule="evenodd" clip-rule="evenodd" d="M8.33225 0.0115902C8.27272 0.019811 8.06976 0.0440768 7.88124 0.0655303C6.31192 0.243936 4.74462 0.897959 3.40716 1.93259C3.01142 2.23871 2.22759 3.02246 1.9196 3.42002C0.920875 4.70913 0.315287 6.12683 0.0625378 7.76767C-0.0208459 8.30913 -0.0208459 9.70003 0.0625378 10.2415C0.466431 12.8636 1.84033 15.0511 3.98446 16.4859C5.17594 17.2832 6.39801 17.7416 7.89928 17.9543C8.38666 18.0234 9.7124 18.0121 10.2446 17.9343C11.5892 17.7377 12.8813 17.2452 13.979 16.5106C16.2043 15.0214 17.5725 12.8172 17.9555 10.1043C18.0159 9.67667 18.0145 8.32662 17.9532 7.88684C17.6342 5.59637 16.5316 3.56518 14.8269 2.12733C13.5386 1.04074 11.9316 0.31969 10.2626 0.0793758C9.87314 0.0233085 8.57663 -0.0222305 8.33225 0.0115902ZM11.345 2.9113C11.7122 2.9312 12.0491 2.95587 12.0937 2.96603L12.1749 2.98457V3.9574V4.93023H11.441C10.437 4.93023 10.2366 4.99737 10.0513 5.39568C9.95851 5.59529 9.95757 5.60603 9.95674 6.48065L9.95591 7.36402L11.0339 7.37358L12.112 7.38313L12.094 7.49977C12.0841 7.56392 12.0213 8.05042 11.9546 8.58092L11.8332 9.54542H10.8855H9.93787V12.3398V15.1341H8.81935H7.70083V12.3398V9.54542H6.76272H5.82461V8.46374V7.38205H6.75962H7.69466L7.70956 6.2553C7.72652 4.97364 7.75228 4.81298 8.03134 4.2456C8.32381 3.65099 8.93734 3.166 9.60975 2.99787C10.0934 2.87694 10.4157 2.86086 11.345 2.9113Z" fill="#5F7ABA"/>
</svg>
