<svg width="25" height="25" viewBox="0 0 25 25" fill="none" xmlns="http://www.w3.org/2000/svg">
<path d="M10.913 0.0734363C8.65712 0.366405 6.59169 1.23066 4.78505 2.62715C4.21376 3.07148 3.24208 4.02851 2.76845 4.61445C1.42079 6.28437 0.527235 8.25703 0.146376 10.4055C0.00965712 11.1672 -0.0440538 12.9982 0.0438368 13.8332C0.444227 17.5734 2.50966 20.9377 5.68837 23.0129C7.2704 24.0432 9.05263 24.6926 10.9862 24.9318C11.7284 25.0246 13.2909 25.0197 14.0624 24.927C19.7265 24.2238 24.2235 19.7268 24.9267 14.0627C25.0243 13.2717 25.0243 11.7287 24.9267 10.9377C24.4774 7.30488 22.4413 4.04805 19.3602 2.02168C17.7538 0.966991 15.9667 0.312694 14.0624 0.0734363C13.3202 -0.0144544 11.6161 -0.0144544 10.913 0.0734363ZM15.7518 5.42012C16.4745 5.48359 16.9677 5.61543 17.5292 5.89375C17.9198 6.08418 18.0614 6.1916 18.4374 6.56269C18.8085 6.93867 18.9159 7.08027 19.1063 7.4709C19.6044 8.47676 19.6434 8.8918 19.6142 12.8908C19.5995 15.7961 19.5897 16.0207 19.497 16.4357C19.1405 17.9982 18.1493 19.0578 16.6845 19.4289C16.0106 19.6047 15.3661 19.634 12.4999 19.634C8.90126 19.634 8.44228 19.5852 7.4706 19.1066C7.07997 18.9162 6.93837 18.8088 6.56239 18.4377C6.1913 18.0617 6.08388 17.9201 5.89345 17.5295C5.41493 16.5578 5.37099 16.133 5.37099 12.5002C5.37099 8.86738 5.41493 8.44258 5.89345 7.4709C6.08388 7.08027 6.18642 6.93867 6.56239 6.56758C7.17274 5.96211 7.71962 5.67891 8.65712 5.48848C9.33583 5.35176 14.3895 5.30293 15.7518 5.42012Z" fill="#FFFFFF"/>
<path d="M9.49707 6.64102C8.52539 6.70938 7.90527 6.94375 7.41699 7.43203C6.92871 7.9252 6.71875 8.50137 6.64062 9.56094C6.58203 10.3666 6.58203 14.6342 6.64062 15.4398C6.71875 16.4945 6.93359 17.0805 7.42676 17.5736C7.94434 18.0961 8.49609 18.2816 9.7168 18.3647C10.7568 18.433 15.5615 18.3939 16.0107 18.3158C17.3535 18.0717 18.0713 17.3539 18.3154 16.0111C18.3936 15.5619 18.4326 10.7572 18.3643 9.71719C18.2812 8.48184 18.1006 7.94961 17.5732 7.42715C17.0703 6.92422 16.499 6.71426 15.4102 6.64102C14.6582 6.58731 10.2734 6.59219 9.49707 6.64102ZM16.7041 7.93985C17.0166 8.10098 17.2266 8.53067 17.1387 8.8334C16.9482 9.50723 16.2305 9.71719 15.7568 9.24356C15.0977 8.58438 15.874 7.51504 16.7041 7.93985ZM13.501 8.98477C14.1406 9.18496 14.5801 9.45352 15.0635 9.93692C15.5518 10.4252 15.8154 10.8598 16.0205 11.5238C16.1865 12.0512 16.1865 12.9496 16.0205 13.477C15.8154 14.141 15.5518 14.5756 15.0635 15.0639C14.5752 15.5522 14.1406 15.8158 13.4766 16.0209C12.9492 16.1869 12.0508 16.1869 11.5234 16.0209C10.8594 15.8158 10.4248 15.5522 9.93652 15.0639C9.44824 14.5756 9.18457 14.141 8.97949 13.477C8.81348 12.9496 8.81348 12.0512 8.97949 11.5238C9.35059 10.3178 10.2539 9.39004 11.416 9.00918C11.8359 8.87246 12.1045 8.84317 12.6465 8.8627C12.9883 8.87246 13.2715 8.91641 13.501 8.98477Z" fill="#FFFFFF"/>
<path d="M11.7334 10.2051C11.0938 10.415 10.5029 10.9717 10.249 11.6064C10.1514 11.8506 10.1318 11.9727 10.1318 12.5C10.1318 13.0225 10.1514 13.1494 10.2441 13.3887C10.4834 13.9795 11.0205 14.5166 11.6113 14.7559C11.8506 14.8486 11.9775 14.8682 12.5 14.8682C13.0225 14.8682 13.1494 14.8486 13.3887 14.7559C13.9795 14.5166 14.5166 13.9795 14.7559 13.3887C14.8486 13.1494 14.8682 13.0225 14.8682 12.5C14.8682 11.9775 14.8486 11.8506 14.7559 11.6113C14.5166 11.0205 13.9746 10.4785 13.3887 10.249C12.9834 10.0879 12.1582 10.0684 11.7334 10.2051Z" fill="#FFFFFF"/>
</svg>
