<svg width="80" height="56" viewBox="0 0 80 56" fill="none" xmlns="http://www.w3.org/2000/svg">
<path d="M5.84375 0.9375C3.20312 1.85938 1.35938 3.70312 0.4375 6.34375C0.015625 7.5625 0 7.71875 0 10.7344C0 12.9688 0.046875 13.9219 0.1875 14.0625C0.453125 14.3281 79.5469 14.3281 79.8125 14.0625C79.9531 13.9219 80 12.9688 80 10.75C80 7.71875 79.9844 7.5625 79.5625 6.34375C78.6406 3.71875 76.7812 1.85938 74.1562 0.9375L72.8906 0.5H40H7.10938L5.84375 0.9375Z" fill="#0151FE"/>
<path d="M0.1875 19.4376C0.046875 19.5783 0 23.0314 0 34.0001V48.3908L0.4375 49.6564C1.17188 51.7658 2.625 53.4689 4.51562 54.4689C6.67188 55.5939 3.625 55.5158 40.3125 55.4689L73.3594 55.422L74.2969 55.047C76.8906 54.0158 78.6719 52.172 79.5625 49.6564L80 48.3908V34.0001C80 23.0314 79.9531 19.5783 79.8125 19.4376C79.5469 19.172 0.453125 19.172 0.1875 19.4376ZM18.6094 35.9064C19.7188 36.5626 20.1406 37.8439 19.9531 40.0626C19.75 42.3908 18.4844 43.2033 15.4375 42.9533C13.1094 42.7501 12.2969 41.4845 12.5469 38.4376C12.6406 37.2658 12.9688 36.5783 13.6094 36.0939C14.2188 35.6251 14.9219 35.5001 16.5781 35.5626C17.7344 35.5939 18.2188 35.672 18.6094 35.9064Z" fill="#0151FE"/>
</svg>
