<svg width="25" height="25" viewBox="0 0 25 25" fill="none" xmlns="http://www.w3.org/2000/svg">
<path d="M10.913 0.0732403C8.65712 0.366209 6.59169 1.23047 4.78505 2.62695C4.21376 3.07129 3.24208 4.02832 2.76845 4.61426C1.42079 6.28418 0.527235 8.25683 0.146376 10.4053C0.00965712 11.167 -0.0440538 12.998 0.0438368 13.833C0.29286 16.1523 1.17665 18.3398 2.62684 20.2148C3.07118 20.7861 4.02821 21.7578 4.61415 22.2314C6.77235 23.9746 9.56044 25 12.1483 25H12.744V20.1172V15.2344H11.4013H10.0585V13.6963V12.1582H11.4013H12.744V10.8008C12.744 8.98926 12.827 8.45215 13.2323 7.65625C13.6132 6.90918 14.2626 6.32812 15.0585 6.03027C15.786 5.75683 16.3475 5.70312 17.7489 5.76172C18.3349 5.79101 18.8915 5.82519 18.9794 5.83984L19.1405 5.86914V7.22656V8.58398L18.0321 8.60351C16.8602 8.62793 16.6796 8.65722 16.3573 8.88672C16.2792 8.94043 16.1571 9.11133 16.079 9.26758L15.9423 9.5459L15.9276 10.8496L15.9081 12.1582H17.4657H19.0184L18.8231 13.6963L18.6278 15.2344H17.2753H15.9179V19.8926V24.5557L16.1766 24.4824C17.4804 24.0967 19.038 23.2861 20.2147 22.373C20.786 21.9287 21.7577 20.9717 22.2313 20.3857C23.579 18.7158 24.4579 16.7871 24.8388 14.6484C25.0097 13.6914 25.0536 11.9824 24.9315 10.9863C24.4872 7.31933 22.4559 4.05762 19.3602 2.02148C17.7538 0.966795 15.9667 0.312498 14.0624 0.0732403C13.3202 -0.0146503 11.6161 -0.0146503 10.913 0.0732403Z" fill="#0151FE"/>
</svg>
