<svg width="87" height="87" viewBox="0 0 87 87" fill="none" xmlns="http://www.w3.org/2000/svg">
<path d="M37.9033 1.11035C30.3141 2.17676 23.5779 4.98495 17.375 9.62383C15.2066 11.2412 11.2432 15.2047 9.60801 17.3908C5.27129 23.185 2.72969 29.0146 1.34336 36.3018C0.987891 38.2035 0.93457 38.9855 0.93457 43.5C0.93457 48.0145 0.987891 48.7965 1.34336 50.6982C2.71191 57.9676 5.28906 63.8506 9.62578 69.627C11.2609 71.8131 15.2066 75.7588 17.4283 77.4117C23.2936 81.8195 29.6387 84.5389 36.8369 85.7475C38.401 85.9963 39.7518 86.0674 43.5908 86.0674C47.8209 86.0674 48.6562 86.0141 50.6646 85.6586C59.7291 84.0234 67.3539 80.0777 73.7168 73.7148C80.1863 67.2453 84.1853 59.4072 85.7494 50.165C86.2115 47.3568 86.2115 39.6432 85.7494 36.835C84.2031 27.6105 80.1863 19.7547 73.7168 13.2852C67.3361 6.90449 59.7824 2.99433 50.7002 1.35918C47.9275 0.861519 40.676 0.71933 37.9033 1.11035ZM36.517 15.5957C37.4057 16.1289 37.6723 16.8398 37.7789 18.9193L37.8678 20.75H40.6582H43.4486L43.5375 18.9904C43.6086 17.6752 43.7152 17.0887 43.9641 16.6443C45.066 14.7603 47.6254 14.7603 48.7273 16.6443C48.9939 17.1242 49.1006 17.6752 49.1539 19.1682L49.2428 21.1055L49.9715 21.2832C51.2512 21.6031 53.5084 22.5629 54.6281 23.2738C56.3344 24.3402 58.2539 26.473 59.1248 28.2326C59.5158 29.0502 59.9779 30.2055 60.1201 30.792C60.4578 32.1428 60.4578 34.7732 60.1201 36.124C59.498 38.5234 57.9695 40.9584 56.0145 42.6113C55.4812 43.0557 55.0547 43.4467 55.0547 43.5C55.0547 43.5533 55.4457 43.9088 55.9078 44.282C57.8629 45.935 59.5158 48.4943 60.1201 50.876C60.4578 52.2268 60.4578 54.8572 60.1201 56.208C59.9779 56.7945 59.5158 57.9498 59.1248 58.7852C58.5205 60.0293 58.0939 60.5803 56.7609 61.8955C54.7525 63.9039 52.833 64.9703 49.9715 65.699L49.2428 65.8945L49.1539 67.8318C49.0828 69.5025 49.0117 69.858 48.6562 70.3912C47.3943 72.2219 45.2971 72.2396 44.0352 70.3912C43.6975 69.8936 43.6086 69.4848 43.5375 68.0273L43.4486 66.25H40.6582H37.8678L37.7789 68.0096C37.7078 69.3248 37.6012 69.9113 37.3523 70.3557C36.2504 72.2396 33.691 72.2396 32.5891 70.3557C32.3402 69.9113 32.2336 69.3248 32.1625 68.0273L32.0736 66.3033L30.3496 66.2145C29.0521 66.1434 28.4656 66.0367 28.0213 65.7879C26.1373 64.6859 26.1373 62.1266 28.0213 61.0246C28.4656 60.7758 29.0521 60.6691 30.3674 60.598L32.127 60.5092V53.4531V46.3971L30.3674 46.3082C29.0521 46.2371 28.4656 46.1305 28.0213 45.8816C26.1373 44.7797 26.1373 42.2203 28.0213 41.1184C28.4656 40.8695 29.0521 40.7629 30.3674 40.6918L32.127 40.6029V33.5469V26.4908L30.2963 26.402C27.4881 26.2598 26.6172 25.5844 26.6172 23.5937C26.6172 21.6031 27.4881 20.9277 30.2607 20.7855L32.0736 20.6967L32.1625 18.8838C32.3047 16.1111 32.9801 15.2402 34.9707 15.2402C35.6283 15.2402 36.1437 15.3469 36.517 15.5957Z" fill="#0151FE"/>
<path d="M37.8145 33.5469V40.6562H42.9332C47.1277 40.6562 48.2297 40.6029 49.0295 40.3719C51.4467 39.6432 53.4551 38.0791 54.326 36.2307C54.7348 35.3598 54.7881 35.0043 54.7881 33.458C54.7881 31.8762 54.7348 31.574 54.3082 30.7564C53.6506 29.5301 52.2465 28.1437 51.0023 27.5217C48.9762 26.4908 48.5141 26.4375 42.9332 26.4375H37.8145V33.5469Z" fill="#0151FE"/>
<path d="M37.8145 53.4531V60.5625H42.9332C47.1277 60.5625 48.2297 60.5092 49.0295 60.2781C51.4467 59.5494 53.4551 57.9854 54.326 56.1369C54.7348 55.266 54.7881 54.9105 54.7881 53.3643C54.7881 51.7824 54.7348 51.4803 54.3082 50.6627C53.6506 49.4363 52.2465 48.05 51.0023 47.4279C48.9762 46.3971 48.5141 46.3437 42.9332 46.3437H37.8145V53.4531Z" fill="#0151FE"/>
</svg>
