<svg width="25" height="25" viewBox="0 0 25 25" fill="none" xmlns="http://www.w3.org/2000/svg">
	<path d="M10.913 0.0734367C8.65712 0.366405 6.59169 1.23066 4.78505 2.62715C4.21376 3.07148 3.24208 4.02851 2.76845 4.61445C1.42079 6.28437 0.527235 8.25703 0.146376 10.4055C0.00965712 11.1672 -0.0440538 12.9982 0.0438368 13.8332C0.444227 17.5734 2.50966 20.9377 5.68837 23.0129C7.2704 24.0432 9.05263 24.6926 10.9862 24.9318C11.7284 25.0246 13.2909 25.0197 14.0624 24.927C19.7265 24.2238 24.2235 19.7268 24.9266 14.0627C25.0243 13.2717 25.0243 11.7287 24.9266 10.9377C24.4774 7.30488 22.4413 4.04805 19.3602 2.02168C17.7538 0.966991 15.9667 0.312695 14.0624 0.0734367C13.3202 -0.0144539 11.6161 -0.0144539 10.913 0.0734367ZM14.8778 7.10469C16.9872 7.14863 18.2665 7.26582 18.8183 7.4709C19.1552 7.59785 19.6044 7.99824 19.7899 8.34004C20.0878 8.88203 20.2147 9.87812 20.2489 11.9338C20.288 14.2775 20.1415 15.9133 19.829 16.5773C19.5311 17.217 18.994 17.5734 18.1395 17.7004C16.079 18.0031 9.01356 18.008 6.9286 17.7004C6.6747 17.6613 6.33778 17.5832 6.18153 17.5295C5.80556 17.3879 5.37099 16.9777 5.17567 16.5871C4.89247 16.0012 4.73622 14.5656 4.73622 12.5002C4.73622 10.5373 4.89247 9.02851 5.15126 8.46211C5.31239 8.10078 5.71278 7.69551 6.07411 7.51973C6.43056 7.34394 6.97743 7.25117 8.10536 7.17305C9.06239 7.10957 11.9921 7.04121 12.9638 7.06562C13.3397 7.07051 14.1991 7.09004 14.8778 7.10469Z" fill="#0151FE"/>
	<path d="M10.9375 12.5C10.9375 13.7891 10.9521 14.8438 10.9717 14.8438C11.0205 14.8438 15.0391 12.5293 15.0391 12.5C15.0391 12.4707 11.0205 10.1562 10.9717 10.1562C10.9521 10.1562 10.9375 11.2109 10.9375 12.5Z" fill="#0151FE"/>
</svg>
