<svg width="513" height="474" viewBox="0 0 513 474" fill="none" xmlns="http://www.w3.org/2000/svg">
<path d="M289.041 1.55273C269.302 5.94433 249.563 15.7958 234.315 28.8519C217.413 43.3323 201.456 69.5632 195.191 92.8268C192.355 103.39 192 106.832 192 124.28C192 147.188 193.891 156.802 202.52 174.962L207.72 186H256.773H305.943V180.778V175.555L294.714 175.08C285.022 174.724 283.131 174.249 280.53 171.757C276.63 168.078 276.748 163.449 280.649 159.769C283.604 157.039 284.431 156.92 306.061 156.327C327.337 155.734 328.519 155.615 331.001 153.004C335.138 148.968 334.902 139.354 330.647 135.675C327.928 133.301 325.8 132.826 314.69 132.351C296.133 131.402 288.095 127.366 281.594 115.734C277.221 107.782 276.866 96.7437 280.767 89.2661C285.495 80.3642 296.369 72.0557 303.579 72.0557C305.588 72.0557 305.943 71.3436 305.943 67.4268C305.943 61.0174 306.77 59.237 310.907 57.1006C317.408 53.7772 323.673 58.7622 323.673 67.1894V70.6314L335.02 71.1062C345.776 71.581 346.603 71.8184 349.204 74.9043C352.75 78.9399 352.75 81.7885 349.204 85.9427L346.367 89.2661L323.673 89.8595C301.57 90.453 300.979 90.5717 298.733 93.3016C294.241 98.8801 294.36 105.646 299.206 110.512C301.57 112.886 303.461 113.361 314.926 113.835C330.528 114.547 336.202 116.803 343.294 124.518C351.331 133.182 353.459 144.458 349.204 155.496C346.367 162.974 337.384 171.045 329.583 173.063L323.673 174.606V180.303V186H372.843H421.896L426.505 176.149C455.227 114.547 428.16 39.2968 367.17 10.9294C349.44 2.73965 339.511 0.603196 317.172 0.128428C302.161 -0.227648 295.069 0.128428 289.041 1.55273Z" fill="#0151FE"/>
<path fill-rule="evenodd" clip-rule="evenodd" d="M418.65 40.6016C433.82 55.0879 484.549 103.528 431 197H196.5C178.167 166.667 165.997 83.5 202.5 52.5C184.5 34 175.003 31 134.003 31C93.0028 31 1.00281 70.5 0.00281004 180.5C-0.796995 268.5 169.336 412.833 254.503 474C340.669 414.833 513 273.3 513 180.5C513 80.5 462 39.5 417.5 39.5L418.65 40.6016ZM158 204C149.163 204 142 211.164 142 220V225C142 233.836 149.163 241 158 241H427C435.837 241 443 233.836 443 225V220C443 211.164 435.837 204 427 204H158Z" fill="#0151FE"/>
</svg>
