<svg width="513" height="431" viewBox="0 0 513 431" fill="none" xmlns="http://www.w3.org/2000/svg">
<path d="M113.582 1.41464C56.5818 14.0146 14.5818 58.8146 2.1818 120.515C-0.218198 132.015 -0.718198 159.915 1.0818 174.515C4.0818 198.415 19.6818 233.415 40.5818 263.215C74.7818 312.015 137.282 368.815 211.582 418.615L228.582 430.015L229.182 361.115C230.082 269.815 230.482 263.015 235.782 256.815C237.082 255.215 240.982 252.515 244.382 250.815C250.082 248.015 251.782 247.715 267.082 246.815C297.682 244.915 301.782 244.315 309.882 240.215C327.482 231.615 339.082 212.215 339.082 191.815C338.982 175.215 333.882 161.515 323.682 151.415C317.782 145.515 306.882 138.815 300.882 137.415C299.382 137.115 288.082 136.115 275.882 135.315C251.982 133.715 245.082 132.315 240.082 128.115C236.582 125.215 232.782 119.715 231.682 115.815C231.282 114.415 230.582 95.8146 230.082 74.5146L229.282 35.6146L226.382 32.6146C215.882 21.6146 192.482 9.01464 171.682 3.11464C163.582 0.914642 160.382 0.514642 141.582 0.214642C125.282 -0.085358 118.982 0.214642 113.582 1.41464Z" fill="#0151FE"/>
<path d="M347.582 1.41489C325.782 6.21489 301.582 18.0149 288.382 30.1149L284.082 34.1149V57.9149V81.8149L286.382 82.2149C287.582 82.5149 292.882 83.2149 298.082 83.8149C320.482 86.4149 341.382 97.0149 359.182 114.715C373.182 128.615 383.082 145.615 388.282 164.615C390.082 171.115 390.382 175.115 390.382 190.815C390.382 206.615 390.082 210.415 388.282 217.115C379.982 247.415 358.582 273.415 330.082 287.815C319.382 293.215 307.782 296.615 295.182 298.015L284.282 299.215L283.582 362.215C283.182 396.915 282.982 426.315 283.182 427.615C283.582 429.815 284.682 429.215 298.582 419.715C373.682 368.815 429.682 318.515 465.982 269.515C488.682 238.815 504.082 206.715 510.182 177.715C512.082 168.315 512.282 165.215 511.782 145.815C511.182 122.415 510.282 116.515 504.482 98.9149C497.282 77.0149 485.082 57.1149 468.582 40.3149C450.182 21.6149 431.082 10.4149 404.082 2.71489C393.982 -0.185114 358.582 -0.985114 347.582 1.41489Z" fill="#0151FE"/>
</svg>
