<svg width="18" height="18" viewBox="0 0 18 18" fill="none" xmlns="http://www.w3.org/2000/svg">
<path fill-rule="evenodd" clip-rule="evenodd" d="M8.14557 0.0218544C5.32921 0.314719 2.86093 1.84745 1.36152 4.23461C-0.764401 7.61924 -0.367625 12.0895 2.32014 15.0342C3.80762 16.6639 5.6679 17.6382 7.89876 17.9559C8.31525 18.0153 9.69934 18.0145 10.1342 17.9547C12.1716 17.6746 13.9964 16.771 15.3841 15.3548C15.8396 14.8901 15.9366 14.7789 16.2387 14.376C17.139 13.1753 17.7284 11.7115 17.9558 10.1118C18.0147 9.6973 18.0147 8.30681 17.9558 7.89256C17.8041 6.82611 17.5282 5.91746 17.0856 5.0263C16.6167 4.08211 16.1355 3.40899 15.3865 2.6495C13.9971 1.24058 12.2574 0.365373 10.2574 0.0690565C9.82554 0.00505185 8.57569 -0.0228467 8.14557 0.0218544ZM11.1314 3.85931C12.1433 3.92487 12.735 4.14665 13.2762 4.66316C13.826 5.18798 14.0797 5.83264 14.1473 6.87708C14.1918 7.56528 14.1918 10.4209 14.1472 11.12C14.08 12.1744 13.8209 12.8264 13.2572 13.3599C12.7324 13.8565 12.1257 14.0806 11.1314 14.145C10.4559 14.1888 7.5594 14.1888 6.88392 14.145C5.87204 14.0794 5.28035 13.8577 4.73917 13.3412C4.18933 12.8163 3.93565 12.1717 3.86806 11.1272C3.82385 10.4442 3.82409 7.5068 3.86845 6.85696C3.93882 5.82546 4.19338 5.18411 4.73917 4.66316C5.25838 4.16761 5.88253 3.92325 6.78543 3.86199C7.3805 3.82162 10.52 3.81968 11.1314 3.85931ZM7.72275 4.77905C6.66521 4.79811 6.49451 4.8091 6.25674 4.87352C5.5079 5.07646 5.08279 5.50205 4.88227 6.2495C4.81848 6.48731 4.80746 6.66375 4.78785 7.76046C4.77567 8.44341 4.77567 9.56094 4.78785 10.2439C4.80746 11.3406 4.81848 11.517 4.88227 11.7548C5.08286 12.5025 5.50948 12.9294 6.25674 13.1302C6.4944 13.194 6.67073 13.205 7.76675 13.2246C8.44927 13.2368 9.56609 13.2368 10.2486 13.2246C11.3536 13.2049 11.5196 13.1943 11.7646 13.1286C12.4936 12.933 12.9351 12.4914 13.1319 11.7608C13.1982 11.5149 13.2084 11.3533 13.2279 10.2439C13.2398 9.56094 13.2398 8.44338 13.2279 7.76046C13.2085 6.65988 13.1978 6.48815 13.1334 6.2495C12.9314 5.5004 12.5033 5.07241 11.7586 4.87514C11.4841 4.80247 11.4114 4.79906 9.4301 4.76602C9.14936 4.76133 8.38105 4.76718 7.72275 4.77905ZM11.9889 5.65799C12.1237 5.70897 12.2801 5.86096 12.3387 5.99806C12.5088 6.39586 12.2052 6.8534 11.7711 6.8534C11.4394 6.8534 11.1551 6.57047 11.1551 6.24038C11.1551 5.81383 11.5926 5.50818 11.9889 5.65799ZM9.86173 6.49044C10.2874 6.63987 10.5238 6.7887 10.8579 7.1176C11.1819 7.43642 11.3843 7.75426 11.5311 8.17436C11.6226 8.43615 11.6296 8.49495 11.6296 9.00216C11.6296 9.50937 11.6226 9.56816 11.5311 9.82995C11.3892 10.236 11.1814 10.5668 10.8764 10.872C10.5714 11.1772 10.2408 11.3852 9.83494 11.5272C9.57331 11.6187 9.51456 11.6257 9.00766 11.6257C8.50077 11.6257 8.44202 11.6187 8.18039 11.5272C7.76056 11.3803 7.44292 11.1777 7.12429 10.8536C6.79722 10.5209 6.6487 10.2856 6.49539 9.85676C6.38942 9.56044 6.38506 9.52638 6.38619 9.00216C6.38724 8.50446 6.39573 8.43122 6.48211 8.17436C6.66559 7.62854 7.05712 7.11457 7.52793 6.80134C8.04394 6.45811 8.41241 6.35585 9.07807 6.37124C9.50209 6.38103 9.58658 6.39389 9.86173 6.49044ZM8.59248 7.33096C7.66695 7.58021 7.10328 8.50942 7.33579 9.40263C7.50413 10.0494 7.96202 10.5069 8.60997 10.6758C9.81987 10.9911 10.9953 9.81488 10.6802 8.60421C10.4349 7.6619 9.4941 7.08811 8.59248 7.33096Z" fill="#5F7ABA"/>
</svg>
