<svg width="60" height="70" viewBox="0 0 60 70" fill="none" xmlns="http://www.w3.org/2000/svg">
<path d="M10.8867 0.287109C10.2305 0.615234 9.56055 1.35352 9.35547 1.98242C9.28711 2.20117 8.67188 5.86523 8.00195 10.1172C6.07422 22.2168 3.57227 37.9395 2.30078 45.9375C1.67188 49.957 0.892578 54.7695 0.605469 56.6289C0.304688 58.4883 0.0585938 60.2109 0.0585938 60.457C0.0585938 61.0039 0.455078 61.7012 0.974609 62.0293C1.31641 62.2617 1.87695 62.2754 8.4668 62.3164L15.5762 62.3574L16.5059 56.5059C18.8711 41.6582 18.9395 41.2207 19.2266 40.6328C19.377 40.3184 19.6914 39.8945 19.9375 39.7168C20.8945 38.9785 21.0449 38.9648 25.6523 38.9648C30.2598 38.9648 32.2695 38.8418 34.8672 38.4043C41.8809 37.2559 47.1309 33.8652 50.4395 28.3691C51.7246 26.2363 52.5996 24.0488 53.3789 20.9863C54.6914 15.832 54.6504 11.6211 53.2422 8.51758C52.0527 5.90625 49.8516 3.65039 47.1445 2.2832C46.0781 1.75 43.8633 1.01172 42.332 0.697266C39.1328 0.0273438 38.3125 0 24.4629 0C11.5156 0 11.4746 0 10.8867 0.287109Z" fill="#0151FE"/>
<path d="M57.1387 21.4787C56.4551 24.3498 54.9238 28.1369 53.5156 30.4201C50.5762 35.1916 46.3242 38.6506 40.9375 40.6467C36.9863 42.1096 33.1582 42.6565 26.6914 42.6565C24.0527 42.6565 22.4805 42.7111 22.4805 42.7932C22.4805 42.8615 21.5234 48.9455 20.3613 56.301C19.1992 63.6701 18.2422 69.7541 18.2422 69.8498C18.2422 70.0549 28.168 70.0686 28.7285 69.8498C29.2617 69.6584 30.1094 68.7971 30.2734 68.3049C30.3418 68.0725 30.7383 65.7209 31.1621 63.0959C32.5566 54.2775 32.8711 52.4865 33.0762 52.1037C33.3633 51.5432 34.1563 50.9006 34.7441 50.7365C35.0313 50.6545 36.2207 50.5861 37.3828 50.5861C48.0605 50.5861 55.0059 46.2932 58.2051 37.7346C59.9414 33.0725 60.4199 27.6311 59.3809 24.2268C59.0117 23.0647 58.2598 21.5061 57.7676 20.9045L57.3848 20.4533L57.1387 21.4787Z" fill="#0151FE"/>
</svg>
