<svg width="18" height="18" viewBox="0 0 18 18" fill="none" xmlns="http://www.w3.org/2000/svg">
<path fill-rule="evenodd" clip-rule="evenodd" d="M8.14548 0.0218544C5.32908 0.314719 2.86078 1.84745 1.36136 4.23461C-0.764375 7.61889 -0.367525 12.0897 2.31999 15.0342C3.80748 16.6639 5.66778 17.6382 7.89866 17.9559C8.31516 18.0153 9.69926 18.0145 10.1341 17.9547C12.1716 17.6746 13.9963 16.771 15.3841 15.3548C15.8396 14.8901 15.9366 14.7789 16.2387 14.376C17.139 13.1753 17.7284 11.7115 17.9558 10.1118C18.0147 9.6973 18.0147 8.30681 17.9558 7.89256C17.8041 6.82611 17.5282 5.91746 17.0856 5.0263C16.6167 4.08211 16.1355 3.40899 15.3865 2.6495C13.997 1.24058 12.2573 0.365373 10.2573 0.0690565C9.82546 0.00505185 8.57559 -0.0228467 8.14548 0.0218544ZM11.5612 5.03993C11.8499 5.11348 12.1659 5.27826 12.3833 5.46859L12.5659 5.62841L12.8021 5.56912C13.0875 5.49754 13.5105 5.33184 13.7195 5.20972L13.8726 5.12028L13.848 5.20309C13.7648 5.48254 13.4316 5.93606 13.1729 6.12198C13.0863 6.18423 13.0329 6.24101 13.0544 6.24816C13.1126 6.26761 13.6051 6.15224 13.8644 6.0584C13.9895 6.0131 14.0984 5.98253 14.1063 5.99045C14.1528 6.03698 13.45 6.79025 13.2183 6.9421C13.1417 6.99233 13.1359 7.02393 13.1151 7.4968C13.0757 8.39505 12.8585 9.20305 12.4358 10.0237C12.1321 10.6132 11.812 11.0555 11.3654 11.5024C10.5551 12.3132 9.58815 12.8268 8.42872 13.0621C8.09204 13.1305 7.93253 13.141 7.2474 13.1398C6.55917 13.1386 6.40684 13.1279 6.08568 13.0584C5.56051 12.9448 5.14599 12.8003 4.65993 12.5617C4.03014 12.2524 4.03236 12.2609 4.58009 12.2582C5.31134 12.2545 5.83454 12.1274 6.47739 11.7973C6.64443 11.7116 6.85692 11.5875 6.94957 11.5216C7.10676 11.4097 7.11236 11.4006 7.03311 11.3858C6.9864 11.377 6.85685 11.3531 6.74525 11.3326C6.11775 11.2173 5.50316 10.7092 5.26853 10.1118L5.21319 9.97086L5.58783 9.97026C6.10726 9.96945 6.16788 9.93746 5.85629 9.82851C5.10698 9.5665 4.58851 8.89715 4.48223 8.05456C4.45998 7.87808 4.463 7.86628 4.52387 7.89171C4.73911 7.9815 5.06974 8.08108 5.21164 8.09884L5.37612 8.11941L5.12307 7.86508C4.59495 7.33423 4.38735 6.62018 4.55471 5.91003C4.59523 5.73792 4.71003 5.44802 4.76315 5.38359C4.76678 5.37922 4.9668 5.57007 5.20767 5.8077C5.99816 6.58756 6.89293 7.09086 7.96907 7.361C8.17227 7.41201 9.00958 7.53343 9.02673 7.51434C9.0313 7.50927 9.01944 7.40324 9.00036 7.27875C8.96188 7.02802 9.00142 6.66259 9.09837 6.37237C9.30547 5.75265 9.84602 5.24522 10.5037 5.05314C10.7717 4.9749 11.2811 4.96853 11.5612 5.03993Z" fill="#5F7ABA"/>
</svg>
