<svg width="25" height="25" viewBox="0 0 25 25" fill="none" xmlns="http://www.w3.org/2000/svg">
<path d="M10.9131 0.0730553C9.25781 0.292782 7.71973 0.805477 6.30859 1.61602C2.86133 3.59356 0.551758 7.04571 0.0732422 10.9373C-0.0244141 11.7332 -0.0244141 13.2664 0.0732422 14.0623C0.551758 17.9344 2.86133 21.3963 6.27441 23.3641C7.56348 24.1063 8.93066 24.5945 10.4687 24.8631C11.3184 25.0096 13.1201 25.0438 14.0186 24.9266C19.3994 24.2527 23.7061 20.2635 24.7803 14.9656C25.0098 13.8426 25.0684 12.1141 24.9268 10.9373C24.2236 5.2879 19.7119 0.77618 14.0625 0.0730553C13.3203 -0.0148373 11.6162 -0.0148373 10.9131 0.0730553ZM15.8447 6.90899C16.2695 7.0213 16.6846 7.22637 17.002 7.48516C17.1582 7.61212 17.3291 7.71465 17.3779 7.71465C17.5342 7.71465 18.252 7.4754 18.6475 7.29473C18.8477 7.20196 19.0186 7.13848 19.0283 7.14825C19.0674 7.18731 18.8086 7.6463 18.6035 7.90508C18.4912 8.0418 18.2715 8.26153 18.1103 8.3836C17.9541 8.51055 17.8271 8.61798 17.8369 8.62774C17.876 8.66192 18.6865 8.48126 19.043 8.3543L19.4287 8.21758L19.3213 8.36895C19.165 8.59356 18.4961 9.28204 18.2715 9.44805L18.0811 9.58966L18.0518 10.2293C17.9492 12.3729 17.1436 14.2674 15.6836 15.7859C14.1113 17.4168 11.958 18.2469 9.55078 18.1492C8.7207 18.115 8.10547 18.0027 7.32422 17.744C6.85059 17.5877 5.74219 17.075 5.68848 16.992C5.67383 16.9676 5.92285 16.9529 6.24023 16.9481C7.41699 16.9432 8.36426 16.66 9.38965 16.0057C9.59473 15.869 9.76562 15.742 9.76562 15.7176C9.76562 15.6932 9.68262 15.6736 9.58008 15.6736C8.81836 15.6736 7.75391 15.0047 7.33887 14.2576C7.06055 13.7547 7.04102 13.784 7.70019 13.7596C8.43262 13.74 8.51562 13.6912 8.07617 13.5496C7.01172 13.2127 6.22559 12.2654 6.1084 11.1717L6.07422 10.8494L6.25977 10.9422C6.47461 11.0496 6.9873 11.1815 7.21191 11.1815H7.36816L6.99219 10.8006C6.09863 9.9168 5.86426 8.74981 6.35254 7.617L6.45019 7.38262L6.87012 7.81719C7.6123 8.5838 8.33008 9.11114 9.24316 9.54571C10.1318 9.9754 11.1133 10.2488 12.0215 10.3318L12.3926 10.366L12.3682 9.88262C12.3193 8.9793 12.5684 8.32501 13.208 7.69024C13.623 7.2752 13.9502 7.07989 14.4678 6.92852C14.8486 6.8211 15.4639 6.81133 15.8447 6.90899Z" fill="white"/>
</svg>
