<svg width="81" height="61" viewBox="0 0 81 61" fill="none" xmlns="http://www.w3.org/2000/svg">
<path d="M5.63105 0.299023C3.60605 0.773632 1.64434 2.40312 0.663476 4.39648C0.078125 5.56719 0.078125 5.59883 0.078125 7.56054C0.078125 9.45898 0.0939453 9.58555 0.584375 10.598C0.85332 11.1834 1.42285 12.0377 1.85 12.4807C2.8625 13.5723 36.6863 36.1637 37.9678 36.6066C39.1859 37.0338 41.8121 37.0338 43.0303 36.6066C44.3117 36.1637 78.1355 13.5723 79.148 12.4807C79.5752 12.0377 80.1289 11.1834 80.4137 10.598C80.8408 9.69629 80.9199 9.3166 80.9674 8.01933C81.0306 6.40566 80.8092 5.2666 80.1764 4.0168C79.7176 3.13086 78.2463 1.62793 77.2812 1.07422C75.5094 0.061718 78.009 0.125 40.4199 0.14082C20.2807 0.156639 5.99492 0.219921 5.63105 0.299023Z" fill="#0151FE"/>
<path d="M0.0344633 36.2268L0.0819242 55.4169L0.667276 56.6034C1.31591 57.9481 2.39169 59.103 3.67314 59.8782C5.42919 60.9382 2.85048 60.8749 40.5028 60.8749C77.8388 60.8749 75.5606 60.9382 77.2059 59.9731C78.2184 59.372 79.6106 57.9956 80.1011 57.1096C81.0503 55.3536 81.0028 56.3819 80.9712 35.863L80.9237 17.1001L63.996 28.3958C54.6936 34.5973 46.6095 39.913 46.0399 40.2136C43.8093 41.3843 40.9142 41.843 38.5253 41.4317C35.9782 40.9888 35.994 40.9888 17.6425 28.7597C8.1661 22.4473 0.303409 17.2108 0.192666 17.1475C0.0344633 17.0526 0.00282266 20.7704 0.0344633 36.2268Z" fill="#0151FE"/>
</svg>
