<svg width="51" height="49" viewBox="0 0 51 49" fill="none" xmlns="http://www.w3.org/2000/svg">
<path fill-rule="evenodd" clip-rule="evenodd" d="M14.5245 0.0711019C14.5001 0.110255 14.1413 1.06634 13.7272 2.19572L12.9745 4.24934L11.3797 4.28138C9.91278 4.31096 9.74345 4.33295 9.2657 4.55574C8.61526 4.85901 8.11751 5.4393 7.9686 6.06793C7.90294 6.34532 7.85424 7.57728 7.85424 8.96349V11.3763H18.9025H29.9508L29.9502 8.79294C29.9499 7.26425 29.9043 6.06168 29.8386 5.84733C29.7012 5.39939 29.1099 4.7936 28.5442 4.52132C28.1712 4.34167 27.9154 4.31209 26.4894 4.28318L24.8607 4.25009L24.0834 2.12509L23.3062 0H18.9375C16.5347 0 14.5489 0.0319485 14.5245 0.0711019ZM0 28.5356V48.5389H18.9025H37.8051V43.9884C37.8051 41.4856 37.7911 39.4379 37.7741 39.4379C37.757 39.4379 37.1091 40.3305 36.3341 41.4215L34.9252 43.4052L30.3341 44.652C27.809 45.3378 25.7145 45.8731 25.6795 45.8414C25.6323 45.7987 24.3262 37.6473 24.3003 37.2337C24.2978 37.1946 22.3872 37.1626 20.0545 37.1626H15.8132V35.6932V34.2237H21.1339H26.4545L27.4173 32.8626C27.9468 32.1139 28.38 31.474 28.38 31.4405C28.38 31.407 25.5525 31.3797 22.0966 31.3797H15.8132V29.9576V28.5356L23.17 28.5308L30.5268 28.5261L34.1659 23.4025L37.8051 18.2789V13.4038V8.52863L35.475 8.55413L33.1449 8.57963L33.1171 11.4478L33.0895 14.3159L18.9271 14.2919L4.76491 14.2678L4.73715 11.4L4.70951 8.53223H2.3547H0V28.5356ZM46.4971 12.6918C45.9716 12.8483 45.3899 13.1684 45.0691 13.4773C44.8883 13.6514 40.8945 19.197 36.1938 25.8008C29.8902 34.6563 27.6478 37.8787 27.6501 38.0777C27.6551 38.5048 28.2263 42.0795 28.3002 42.1465C28.3616 42.202 32.6565 41.0871 32.8612 40.9625C33.0117 40.8708 50.068 16.8747 50.2447 16.506C50.3419 16.3032 50.4119 15.8742 50.4165 15.4528C50.429 14.2964 49.8335 13.4199 48.6672 12.8787C48.1886 12.6566 46.968 12.5515 46.4971 12.6918ZM31.5217 18.5813V20.0033H18.9025H6.28339V18.5813V17.1593H18.9025H31.5217V18.5813ZM12.6715 24.2695V25.6915H9.47745H6.28339V24.2695V22.8474H9.47745H12.6715V24.2695ZM31.5217 24.2695V25.6915H23.6674H15.8132V24.2695V22.8474H23.6674H31.5217V24.2695ZM12.6482 29.9813L12.6771 31.3797H9.48028H6.28339V29.9562V28.5328L9.45127 28.5578L12.6191 28.583L12.6482 29.9813ZM12.6191 35.6932V37.1152H9.47745H6.33575L6.30643 35.7925C6.29041 35.0651 6.30099 34.4138 6.32999 34.3454C6.3722 34.2456 7.00336 34.2259 9.50091 34.246L12.6191 34.2711V35.6932ZM12.6482 41.405L12.6191 42.8034L9.45127 42.8285L6.28339 42.8535V41.4301V40.0067H9.48028H12.6771L12.6482 41.405Z" fill="#0151FE"/>
</svg>
