<svg width="55" height="63" viewBox="0 0 55 63" fill="none" xmlns="http://www.w3.org/2000/svg">
<path d="M12.7345 0.676857C11.4917 0.910645 9.80594 1.50127 8.67391 2.1165C4.52723 4.33135 1.42645 8.89639 0.602036 14.0151C0.183677 16.5868 0.429771 19.7491 1.22958 22.0993C2.15243 24.831 4.77332 28.8054 8.19403 32.669C9.52293 34.1702 14.2602 38.8829 14.4448 38.8829C14.5186 38.8829 14.5802 37.2218 14.6048 34.4901L14.6417 30.0851L15.097 29.1253C15.6876 27.8948 16.6473 26.8735 17.7917 26.2706C18.4315 25.9384 19.1206 25.7292 20.6341 25.397C21.7292 25.1632 22.6397 24.954 22.6643 24.9294C22.6889 24.9048 22.5044 24.6464 22.2337 24.3634C21.6307 23.6989 20.9171 22.4069 20.6956 21.5333C20.5972 21.1642 20.4741 20.3397 20.4249 19.7245C20.3388 18.6171 20.3264 18.5802 19.945 18.3341C19.2682 17.928 18.1485 16.6606 17.8163 15.9224C17.5702 15.381 17.521 15.0979 17.5579 14.5812C17.6317 13.6829 18.0255 13.2153 19.4159 12.354C22.2337 10.5944 24.8915 9.7208 27.377 9.7085C28.7921 9.7085 29.8995 9.94229 31.1054 10.5083C35.3382 12.4771 36.7655 16.8329 34.6491 21.3364C34.0585 22.6038 33.1602 24.0188 32.6434 24.4987C32.422 24.6956 32.2743 24.8802 32.3112 24.9048C32.3358 24.9417 33.271 25.1632 34.3661 25.397C36.7532 25.9138 37.713 26.3567 38.7343 27.4272C39.4356 28.1655 40.0755 29.2606 40.3093 30.1712C40.3954 30.4788 40.4815 32.4353 40.5307 34.9454L40.6046 39.1782L43.2255 36.6065C47.0522 32.8536 49.2302 30.3188 51.3097 27.2058C53.9059 23.3052 54.8165 20.6105 54.8165 16.8083C54.8165 13.9413 54.3243 11.7142 53.1677 9.27783C52.3063 7.48135 51.445 6.21397 50.153 4.88506C48.3688 3.02705 46.6831 1.95654 44.3575 1.18135C43.6438 0.947559 42.5979 0.689163 42.0442 0.603027C40.58 0.393848 37.3438 0.529202 35.9534 0.849121C33.6401 1.39053 31.0315 2.47334 28.7675 3.83916L27.6231 4.52822L26.4911 3.83916C24.2147 2.47334 21.6184 1.39053 19.2929 0.849121C17.8532 0.516895 14.1126 0.418457 12.7345 0.676857Z" fill="#0151FE"/>
<path d="M25.2236 11.2834C23.5625 11.6402 21.3107 12.6492 19.6004 13.8059C18.9482 14.2488 18.8867 14.3227 18.8867 14.741C18.8867 15.0486 19.0098 15.4055 19.2313 15.7623C20.7816 18.1863 24.0916 18.8508 29.9117 17.9033C30.4162 17.8172 30.4285 17.8172 30.5146 18.2232C30.6623 18.8877 31.6713 22.4191 31.8189 22.7883C31.8928 22.9852 31.9912 23.1328 32.0404 23.1328C32.1635 23.1328 33.2217 21.3363 33.5908 20.4996C35.3996 16.3775 33.5539 12.3785 29.3211 11.2465C28.4721 11.025 26.3311 11.0373 25.2236 11.2834Z" fill="#0151FE"/>
<path d="M21.8646 20.2412C21.9385 21.6932 22.4922 22.8006 23.6857 23.908C24.5348 24.6955 24.5471 24.7201 24.5471 25.323C24.5471 25.8521 24.5102 25.9506 24.301 25.9875C24.1041 26.0121 24.3994 26.3689 25.7775 27.7471L27.5002 29.4697L29.2229 27.7471C30.601 26.3689 30.8963 26.0121 30.6994 25.9875C30.4902 25.9506 30.4533 25.8521 30.4533 25.2861C30.4533 24.7201 30.5025 24.5971 30.7732 24.4002L31.0809 24.1664L30.7732 23.625C30.6133 23.3174 30.2318 22.2223 29.9488 21.1887C29.4443 19.4291 29.3951 19.3061 29.149 19.3676C27.7094 19.7367 23.9811 19.749 22.5291 19.3922L21.8154 19.2199L21.8646 20.2412Z" fill="#0151FE"/>
<path d="M20.6709 26.7627C18.1607 27.3164 17.1887 27.944 16.3396 29.5559L15.9951 30.208L15.9705 35.2529L15.9336 40.2979L17.4471 41.5529C19.5758 43.3371 22.4797 45.6012 24.3869 46.9793L26.0234 48.1606V50.0555C26.0234 51.9012 26.0234 51.9381 26.2695 51.8643C26.6018 51.7658 28.3982 51.7658 28.7305 51.8643C28.9643 51.9381 28.9766 51.9012 28.9889 50.117V48.2959L30.4408 47.2746C32.2496 46.0072 35.3873 43.5586 37.4422 41.8483L39.0049 40.5316V35.3637V30.208L38.6604 29.5559C37.8113 27.944 36.8393 27.3164 34.3291 26.7504L32.6064 26.369L30.0594 28.9037L27.5 31.4385L24.9529 28.9037L22.3936 26.369L20.6709 26.7627Z" fill="#0151FE"/>
<path d="M25.9373 53.3285C24.6945 53.7346 23.5994 54.7189 22.9719 55.9863C22.6643 56.6016 22.6396 56.7861 22.6396 58.0781C22.6396 59.3947 22.6643 59.5424 22.9965 60.2314C23.4641 61.1789 24.3992 62.1141 25.3467 62.5816C26.0357 62.9139 26.1834 62.9385 27.5 62.9385C28.8166 62.9385 28.9643 62.9139 29.6533 62.5816C30.6008 62.1141 31.5359 61.1789 32.0035 60.2314C32.3357 59.5424 32.3604 59.3947 32.3604 58.0781C32.3604 56.7615 32.3357 56.6139 32.0035 55.9248C31.5359 54.9773 30.6008 54.0422 29.6533 53.5869C29.0135 53.267 28.7674 53.2178 27.6846 53.1932C26.8971 53.1686 26.2695 53.2178 25.9373 53.3285Z" fill="#0151FE"/>
<path d="M6.24994 54.3991C5.49935 54.6945 4.62572 55.482 4.23197 56.2448C3.81361 57.057 3.76439 58.632 4.12123 59.5917C4.85951 61.5728 7.23431 62.5448 9.35072 61.7573C10.1136 61.4743 11.1103 60.5761 11.3687 59.9363L11.5287 59.5548H16.4136H21.2863V58.0782V56.6017H16.4136H11.5287L11.3687 56.2202C11.1103 55.5804 10.1136 54.6822 9.35072 54.3991C8.45248 54.0546 7.13588 54.0546 6.24994 54.3991Z" fill="#0151FE"/>
<path d="M45.6125 54.399C44.8865 54.682 43.8775 55.6049 43.6314 56.2201L43.4715 56.6016H38.5865H33.7139V58.0781V59.5547H38.5742L43.4346 59.567L43.8529 60.2314C44.6035 61.4127 45.7355 62.0156 47.1998 62.0156C48.3564 62.0156 49.2547 61.6588 50.0176 60.9082C50.8666 60.0469 51.1619 59.2102 51.1004 57.832C51.0389 56.6016 50.7682 55.9863 49.9438 55.1742C48.8979 54.1652 47.0768 53.8453 45.6125 54.399Z" fill="#0151FE"/>
</svg>
