<svg width="72" height="58" viewBox="0 0 72 58" fill="none" xmlns="http://www.w3.org/2000/svg">
<path d="M18.1406 0.256239C13.5844 0.664053 8.8875 1.92968 5.09063 3.78592C3.0375 4.78436 0 6.72499 0 7.03436C0 7.23124 5.31563 20.1265 5.47031 20.3094C5.5125 20.3656 7.9875 19.0859 10.9688 17.4547C14.2875 15.6547 16.7625 14.389 17.3672 14.2062C18.6609 13.7984 20.9109 13.7844 22.1484 14.15C24.9328 14.9797 27.0703 16.9344 29.5453 20.8859C32.4844 25.5687 35.0156 29.2812 35.4375 29.4922C35.9578 29.7594 36.4641 29.7594 36.9844 29.4922C37.9969 28.9719 38.0813 28.1141 37.2797 26.3422C36.9844 25.6812 36.5063 24.4015 36.2109 23.5156C35.7891 22.1656 35.7047 21.6875 35.6906 20.6187C35.6766 17.8062 36.4922 16.2453 38.2781 15.7109C39.7688 15.275 41.5688 15.5984 43.9453 16.7515C46.2938 17.8906 47.7563 19.6765 48.3188 22.0531C48.6141 23.3187 48.4172 24.8797 47.7281 26.7219L47.2359 28.0297L47.5734 29.0422C47.7703 29.6047 47.9953 30.3219 48.0938 30.6594C48.2063 31.1234 48.2906 31.2359 48.4313 31.1234C48.7688 30.8422 50.5969 27.0875 50.9625 25.9344C51.4406 24.4016 51.5672 22.7562 51.2859 21.4625C50.85 19.4516 49.8094 17.3703 48.4172 15.7812C47.7 14.9515 47.6156 14.7687 47.6578 14.1641C47.7 13.7562 48.3188 13.25 48.7828 13.25C49.0078 13.25 53.5219 15.3172 59.2875 18.0453C64.8422 20.689 69.6094 22.8969 69.8625 22.9812C70.4813 23.15 71.1844 22.9109 71.6484 22.3765C72.0984 21.8281 72.1406 20.7734 71.7188 20.239C71.1562 19.5359 61.1578 14.3047 53.0156 10.4797C41.5406 5.07968 32.5406 1.77499 25.9453 0.565615C24.4406 0.284365 19.8563 0.115614 18.1406 0.256239Z" fill="#0151FE"/>
<path d="M55.5469 8.87661C55.5469 8.9188 58.4578 10.4235 62.0156 12.2235L68.4703 15.4719L68.5547 15.0782C68.7234 14.2907 68.1469 13.0391 67.3172 12.3641C66.1219 11.3938 61.1437 9.80474 56.9953 9.04536C56.1937 8.90474 55.5469 8.82036 55.5469 8.87661Z" fill="#0151FE"/>
<path d="M39.0939 24.4157C39.0939 24.4579 39.3611 25.0767 39.6705 25.7938C40.1486 26.8767 40.2611 27.2563 40.2611 28.0157C40.2751 30.2376 38.4751 32.0938 36.2955 32.0938C34.6642 32.0938 33.6939 31.4751 32.358 29.5767C31.7955 28.7892 31.3033 28.1563 31.233 28.1563C31.0783 28.1563 30.1501 30.1954 29.883 31.1517C29.6017 32.122 29.2361 32.5157 28.5892 32.5157C28.1955 32.5157 27.9283 32.3329 27.0283 31.4892C25.172 29.7595 22.9783 28.8595 20.6158 28.8595C18.4783 28.8595 16.7486 29.5626 15.2298 31.0532C11.7001 34.5126 12.6283 40.9392 17.5501 47.0845C20.883 51.2329 25.3689 54.0735 33.3283 57.0688C34.4392 57.4907 35.4376 57.8142 35.522 57.8001C35.733 57.7438 37.9126 55.1704 39.3189 53.3282C42.7642 48.8001 44.8595 44.7079 45.647 41.0235C46.2798 37.986 46.4205 34.372 45.9705 32.1782C45.2251 28.5923 43.622 26.1173 41.3298 25.0204C40.3876 24.5704 39.0939 24.2188 39.0939 24.4157Z" fill="#0151FE"/>
</svg>
